<?xml version="1.0" encoding="utf-8"?>
<!-- Generator: Adobe Illustrator 17.0.0, SVG Export Plug-In . SVG Version: 6.00 Build 0)  -->
<!DOCTYPE svg PUBLIC "-//W3C//DTD SVG 1.1//EN" "http://www.w3.org/Graphics/SVG/1.1/DTD/svg11.dtd">
<svg version="1.1" id="Layer_1" xmlns="http://www.w3.org/2000/svg" xmlns:xlink="http://www.w3.org/1999/xlink" x="0px" y="0px"
	 width="100px" height="100px" viewBox="0 0 100 100" enable-background="new 0 0 100 100" xml:space="preserve">
<g>
	<g>
		<g>
			<g>
				<path fill="#F06B8E" d="M77.81,66.18c1.59,6.8,1.27,12.13-0.04,16.23l-0.03-0.01c-8.76-2.36-9.47-14.41,0-16.2L77.81,66.18z"/>
				<path fill="#F06B8E" d="M28.33,72.53c0.44,4.33-3.45,8.48-7.25,8.67c-1.71-5.58-0.19-11.22,0.57-14.29
					c0.08-0.33,0.17-0.68,0.25-1.04C25.26,66.02,28,69.18,28.33,72.53z"/>
				<path fill="#2B2019" d="M35.42,59.93c0,1.2-0.96,2.18-2.16,2.18c-1.2,0-2.18-0.97-2.18-2.18c0-1.19,0.97-2.16,2.18-2.16
					C34.46,57.76,35.42,58.74,35.42,59.93z"/>
				<path fill="#2B2019" d="M69.81,61.36c0,1.19-0.96,2.16-2.16,2.16c-1.2,0-2.18-0.97-2.18-2.16c0-1.2,0.97-2.18,2.18-2.18
					C68.85,59.18,69.81,60.15,69.81,61.36z"/>
				<path fill="#FFFFFF" d="M67.64,63.52c1.2,0,2.16-0.97,2.16-2.16c0-1.2-0.96-2.18-2.16-2.18c-1.2,0-2.18,0.97-2.18,2.18
					C65.47,62.55,66.44,63.52,67.64,63.52z M66.8,57.76c2.63,0,4.77,2.12,4.77,4.75c0,2.63-2.14,4.75-4.77,4.75
					c-2.62,0-4.75-2.12-4.75-4.75C62.05,59.89,64.19,57.76,66.8,57.76z"/>
				<path fill="#FFFFFF" d="M33.26,62.1c1.2,0,2.16-0.97,2.16-2.18c0-1.19-0.96-2.16-2.16-2.16c-1.2,0-2.18,0.97-2.18,2.16
					C31.08,61.13,32.06,62.1,33.26,62.1z M32.42,56.35c2.63,0,4.77,2.12,4.77,4.75c0,2.63-2.14,4.75-4.77,4.75
					c-2.62,0-4.75-2.12-4.75-4.75C27.66,58.47,29.8,56.35,32.42,56.35z"/>
				<path fill="#BC494F" d="M75.06,50.97c-4.63-1.66-12.7-3.61-25.8-4.09c-12.81-0.47-20.19,1.46-24.28,3.35v0.01
					c-0.08,0.51-1.23,7.25-2.48,12.99c-1.29-0.57-7.04-3.31-11.2-7.89C4.8,44.38,26.03,40.43,47.69,40.66
					c1.38,0.01,3.03,0.11,4.89,0.27c1.43,0.12,2.98,0.28,4.59,0.49c0.13,0.16,0.2,0.24,0.2,0.24s0.2-0.04,0.55-0.13
					c2.02,0.27,4.13,0.6,6.26,0.99C77.2,44.93,91.09,49.58,88.2,56c-3.26,3.77-7.69,5.98-11.12,7.13l-0.07,0.01
					c-0.36-1.21-0.79-2.48-1.27-3.79C74.29,55.25,74.94,51.53,75.06,50.97z"/>
				<path fill="#85002B" d="M66,24.01c0.52,0.79,0.29,2.12-0.4,2.75c-0.86,0.8-1.78,1.31-2.87,1.72c-0.13,0.07-1.59,0.67-1.71,0.52
					c0,0-1.59-2.1-2.06-2.98c-0.43-0.77-0.8-1.99-0.48-2.86c0.48-1.31,2.11-1.13,2.99-0.35c0.09,0.08,0.97,1.12,0.91,1.16
					c0.56-0.35,1.04-0.79,1.72-0.91C64.88,22.92,65.6,23.38,66,24.01z"/>
				<path fill="#B50342" d="M65.6,26.76c0.69-0.63,0.92-1.96,0.4-2.75c-0.4-0.63-1.12-1.08-1.9-0.93c-0.68,0.12-1.16,0.56-1.72,0.91
					c0.07-0.04-0.82-1.08-0.91-1.16c-0.88-0.79-2.51-0.96-2.99,0.35c-0.32,0.87,0.05,2.08,0.48,2.86C59.43,26.9,61.02,29,61.02,29
					c0.12,0.15,1.57-0.45,1.71-0.52C63.82,28.07,64.75,27.56,65.6,26.76z M59.79,32.19c0,0-3.08-4.07-4.01-5.78
					c-0.8-1.51-1.53-3.87-0.93-5.54c0.95-2.55,4.11-2.22,5.82-0.68c0.16,0.16,1.76,2,1.76,2.23c1.11-0.65,2.02-1.5,3.35-1.75
					c1.5-0.28,2.9,0.61,3.69,1.83c0.99,1.52,0.56,4.11-0.77,5.34c-1.68,1.55-3.46,2.54-5.57,3.35
					C62.84,31.3,60.02,32.48,59.79,32.19z"/>
				<path fill="#CA344F" d="M62.5,20.23c1.87-1.11,3.43-2.56,5.69-2.99c2.53-0.47,4.9,1.03,6.25,3.11c1.67,2.56,0.95,6.94-1.32,9.04
					c-2.83,2.63-5.86,4.29-9.44,5.66c-0.48,0.19-5.26,2.2-5.64,1.71c0,0-5.23-6.9-6.78-9.79c-1.38-2.55-2.62-6.57-1.59-9.4
					c1.59-4.33,6.97-3.75,9.86-1.16C59.83,16.69,62.74,20.09,62.5,20.23z M60.67,20.19c-1.71-1.54-4.87-1.87-5.82,0.68
					c-0.6,1.67,0.13,4.03,0.93,5.54c0.92,1.71,4.01,5.78,4.01,5.78c0.23,0.29,3.05-0.89,3.34-1c2.11-0.81,3.89-1.8,5.57-3.35
					c1.34-1.23,1.76-3.82,0.77-5.34c-0.79-1.22-2.19-2.11-3.69-1.83c-1.34,0.25-2.24,1.09-3.35,1.75
					C62.44,22.19,60.83,20.35,60.67,20.19z"/>
				<path fill="#EE3F64" d="M50.36,11.83c8.91-2.67,12.58,5.23,12.58,5.23s6.94-5.06,12.41-3.08c1.91,1.48,3.74,3.1,5.44,4.83
					l-0.15,0.15c0.09,15.66-19.2,21.61-22.71,22.57c-0.25-0.04-0.49-0.08-0.75-0.11c-1.35-1.64-9.08-11.31-10.71-19.12
					C44.69,13.72,50.36,11.83,50.36,11.83z M51.26,26.97c1.55,2.88,6.78,9.79,6.78,9.79c0.37,0.49,5.16-1.52,5.64-1.71
					c3.58-1.38,6.61-3.03,9.44-5.66c2.27-2.1,2.99-6.48,1.32-9.04c-1.35-2.08-3.73-3.58-6.25-3.11c-2.26,0.43-3.82,1.88-5.69,2.99
					c0.24-0.13-2.67-3.54-2.98-3.82c-2.88-2.59-8.27-3.16-9.86,1.16C48.64,20.4,49.88,24.42,51.26,26.97z"/>
				<path fill="#EF5369" d="M83.41,21.84c0.49,13.82-15.25,19.47-19.23,20.67c-2.14-0.39-4.25-0.72-6.26-0.99
					c3.51-0.96,22.81-6.9,22.71-22.57l0.15-0.15c0.93,0.96,1.83,1.95,2.68,2.98L83.41,21.84z"/>
				<path fill="#EF5369" d="M62.94,17.06c0,0-3.67-7.91-12.58-5.23c0,0-5.67,1.9-3.9,10.47c1.63,7.81,9.36,17.48,10.71,19.12
					c-1.62-0.21-3.16-0.37-4.59-0.49l0.01-0.16c0,0-5.13-5.78-7.24-9.68c-5.23-9.68-2.11-23.81,6.01-24.7
					c8.12-0.89,12.35,6.24,12.35,6.24c1.6-2.23,5.06-2.32,6.38-2.26c1.79,1.08,3.55,2.3,5.25,3.62C69.89,12,62.94,17.06,62.94,17.06
					z"/>
				<path fill="#F6A4AC" d="M64.19,42.51c3.98-1.2,19.72-6.85,19.23-20.67l0.05-0.05c5.38,6.48,9.01,14.3,9.19,22.87
					c-0.2,4.78-1.99,8.49-4.46,11.34C91.09,49.58,77.2,44.93,64.19,42.51z"/>
				<path fill="#F6A4AC" d="M49.47,3.71c6.24,0,13.69,2.42,20.63,6.65c-1.32-0.07-4.78,0.03-6.38,2.26c0,0-4.23-7.13-12.35-6.24
					c-8.12,0.89-11.24,15.02-6.01,24.7c2.11,3.9,7.24,9.68,7.24,9.68l-0.01,0.16c-1.86-0.16-3.51-0.25-4.89-0.27
					c-21.66-0.23-42.89,3.73-36.4,14.69c-3.25-3.54-5.54-8.2-4.1-13.81C10.74,27.74,32.56,3.71,49.47,3.71z"/>
				<path fill="#FCC381" d="M22.5,63.24c1.26-5.74,2.4-12.49,2.48-12.99v-0.01c4.09-1.9,11.47-3.82,24.28-3.35
					c13.1,0.48,21.17,2.43,25.8,4.09c-0.12,0.56-0.76,4.29,0.68,8.39c0.48,1.31,0.91,2.58,1.27,3.79c0.32,1.04,0.59,2.06,0.8,3.03
					l-0.07,0.01c-9.47,1.79-8.76,13.83,0,16.2l0.03,0.01c-1.2,3.83-3.24,6.61-5.37,8.55c-5.12,4.67-19.8,6.46-31.15,4.46
					C28.12,92.7,22.86,86.98,21.08,81.2c3.81-0.19,7.69-4.34,7.25-8.67c-0.33-3.35-3.07-6.52-6.42-6.66
					C22.11,65.04,22.31,64.15,22.5,63.24z M71.57,62.52c0-2.63-2.14-4.75-4.77-4.75c-2.62,0-4.75,2.12-4.75,4.75
					c0,2.63,2.14,4.75,4.75,4.75C69.43,67.27,71.57,65.15,71.57,62.52z M37.18,61.1c0-2.63-2.14-4.75-4.77-4.75
					c-2.62,0-4.75,2.12-4.75,4.75c0,2.63,2.14,4.75,4.75,4.75C35.05,65.86,37.18,63.73,37.18,61.1z"/>
			</g>
		</g>
	</g>
	<g>
		<path fill="#7E2A2E" d="M25.22,51.34l-2.45,12.02c0,0-9.57-5.12-11.57-8.23c-2-3.12,14.47-11.8,39.17-8.23
			C50.37,46.88,29.44,45.77,25.22,51.34z"/>
		<path fill="#7E2A2E" d="M75.29,51.34c0,0-0.67,9.13,2,11.8c0,0,9.12-2.89,10.9-7.79c0,0,1.78-4.23-3.11-5.56
			c0,0,2.89,4.23,0.44,5.12c-2.45,0.89-5.56-1.78-5.56-1.78L75.29,51.34z"/>
		<path fill="#BE7380" d="M29.89,12.61c0.45-0.67-18.47,15.8-22.48,28.71c-1.26,4.04-0.89,8.23,2,11.35c0,0,2.23-8.9,13.35-10.02
			c4.62-0.46,12.46-1.33,21.14-2.22c-6.9-0.45-17.84-3.81-23.81-4.23c-7.99-0.56-2.86-6.46-0.89-9.13
			C22.45,22.68,24.99,19.29,29.89,12.61z"/>
		<path fill="#FFFFFF" d="M50.14,3.71c0,0,26.93,16.92,32.05,34.72c0,0-2.89-20.25-14.69-29.82C67.5,8.6,55.26,3.04,50.14,3.71z"/>
		<path fill="#FFFFFF" d="M65.72,42.66c0,0,14.69,2.45,19.36,7.12c0,0-2.67-6.01-3.12-10.02C81.97,39.76,80.86,45.99,65.72,42.66z"
			/>
		<path fill="#FFFFFF" d="M25.44,23.07c0,0-10.46,16.03-6.23,20.48c0,0,12.91-2.67,17.36-2.45c-2.8-0.04-5.71-0.34-8.45-0.92
			C19.82,38.42,24.59,28.84,25.44,23.07z"/>
		<path fill="#F8A679" d="M20.77,81.16c0,0,5.34,0.22,7.34-6.23c0,0,19.14,23.37,44.29,15.8c0,0-5.34,7.79-30.71,5.34
			C25.88,94.51,20.77,81.16,20.77,81.16z"/>
		<path fill="#F8A679" d="M22.32,65.58c0,0,2.89,0.89,4.01,2.89c-3.57-6.42,1.32-13.81,6.92-16.84c7.06-3.82,15.47-4.7,23.35-4.31
			c-0.01,0-22.03-1.11-30.49,3.34L22.32,65.58z"/>
		<path fill="#F8A679" d="M65.5,48.44c0,0,8.68,6.68,11.13,13.35c0,0-2.22-8.9-1.34-10.46C75.29,51.34,70.17,49.33,65.5,48.44z"/>
		<path fill="#BE7380" d="M85.53,24.41c0,0,7.13,21.14-0.44,25.37c0,0,4,2,4.23,4.9c0,0,4.23-7.57,2.89-15.36
			C90.87,31.53,85.53,24.41,85.53,24.41z"/>
	</g>
	<g>
		<path fill="#2B2019" d="M93.66,44.64C93.19,20.71,66.54,2.71,49.48,2.71c-17.17,0-39.51,24.07-43.26,38.59
			C2.94,54.01,17.28,61.86,21.35,63.81c-0.22,1.01-0.45,1.98-0.67,2.86l-0.07,0.3c-0.95,3.8-2.94,11.7,1.36,18.54
			c3.32,5.29,9.73,8.95,19.1,10.88c3.06,0.54,6.49,0.82,9.96,0.82c8.85,0,17.97-1.79,22.05-5.51c4.01-3.66,9.61-11.97,5.16-27.91
			C82.63,62.15,93.16,56.95,93.66,44.64z M8.16,41.79C11.67,28.17,33.42,4.71,49.48,4.71c16.29,0,41.74,17.16,42.18,39.91
			c-0.14,3.42-1.13,6.21-2.57,8.51c-0.08-0.3-0.19-0.6-0.34-0.89c-3.91-7.85-30.55-12.14-41.05-12.25
			c-7.6-0.08-32.78,0.32-37.51,8.73c-0.43,0.76-0.67,1.56-0.73,2.39C7.96,48.41,7.26,45.29,8.16,41.79z M71.72,90.21
			c-4.67,4.26-18.83,6.23-30.28,4.21c-8.78-1.82-14.77-5.18-17.78-9.98c-3.84-6.12-2.06-13.19-1.11-16.98l0.07-0.3
			c1.35-5.38,2.87-13.97,3.26-16.21c4.03-1.76,11.17-3.52,23.33-3.06c12.26,0.45,20.07,2.21,24.72,3.77
			c-0.18,1.53-0.33,4.64,0.86,8.04C81.49,77.7,75.75,86.54,71.72,90.21z M77.66,61.86c-0.29-0.93-0.61-1.87-0.97-2.84
			c-0.94-2.68-0.92-5.2-0.8-6.65c2.75,1.09,3.87,1.95,3.9,1.97c0.19,0.15,0.41,0.22,0.63,0.22c0.29,0,0.58-0.13,0.78-0.37
			c0.35-0.43,0.28-1.06-0.15-1.41c-0.13-0.11-1.64-1.29-5.33-2.65c-0.12-0.1-0.26-0.19-0.42-0.22c-0.07-0.02-0.14,0-0.21,0
			c-4.79-1.68-12.89-3.55-25.79-4.03c-12.72-0.47-20.22,1.41-24.52,3.36c-0.03,0.01-0.05,0.03-0.08,0.03
			c-0.05,0.02-0.11,0.05-0.16,0.07c-0.04,0.02-0.08,0.03-0.12,0.06c-3.64,1.73-4.83,3.45-4.93,3.61c-0.3,0.46-0.17,1.07,0.29,1.37
			c0.46,0.3,1.08,0.18,1.39-0.27c0.02-0.03,0.66-0.92,2.49-2.02c-0.4,2.26-1.1,6.06-1.86,9.69c-2.36-1.19-7.25-3.99-10.59-8.12
			c-0.62-1.58-0.57-3,0.16-4.29c2.91-5.16,16.78-8.24,36.33-8.05c10.48,0.11,36.41,4.57,39.87,11.51c0.34,0.68,0.43,1.36,0.3,2.05
			C84.76,58.71,80.46,60.82,77.66,61.86z"/>
		<path fill="#2B2019" d="M32.42,56.01c-2.81,0-5.09,2.28-5.09,5.09c0,2.81,2.28,5.09,5.09,5.09c2.81,0,5.09-2.28,5.09-5.09
			C37.51,58.29,35.23,56.01,32.42,56.01z M32.42,65.52c-2.44,0-4.42-1.98-4.42-4.42c0-2.44,1.98-4.42,4.42-4.42
			c2.44,0,4.42,1.98,4.42,4.42C36.85,63.54,34.86,65.52,32.42,65.52z"/>
		<path fill="#2B2019" d="M66.81,57.43c-2.81,0-5.09,2.28-5.09,5.09c0,2.81,2.28,5.09,5.09,5.09c2.81,0,5.09-2.28,5.09-5.09
			C71.9,59.71,69.62,57.43,66.81,57.43z M66.81,66.94c-2.44,0-4.42-1.98-4.42-4.42c0-2.44,1.99-4.42,4.42-4.42
			c2.44,0,4.42,1.98,4.42,4.42C71.23,64.96,69.25,66.94,66.81,66.94z"/>
		<path fill="#2B2019" d="M55.98,68.87c-0.37-0.05-0.7,0.19-0.76,0.56c-0.02,0.15-0.6,3.78-5.33,3.61
			c-4.71-0.15-5.51-3.96-5.54-4.13c-0.07-0.36-0.42-0.6-0.78-0.53c-0.36,0.07-0.6,0.42-0.54,0.78c0.01,0.05,1,5.04,6.81,5.22
			c0.11,0,0.22,0,0.32,0c5.58,0,6.36-4.7,6.37-4.74C56.59,69.27,56.34,68.93,55.98,68.87z"/>
	</g>
</g>
</svg>
